<mxfile host="app.diagrams.net" modified="2023-08-20T18:17:26.846Z" agent="Mozilla/5.0 (Windows NT 10.0; Win64; x64) AppleWebKit/537.36 (KHTML, like Gecko) Chrome/114.0.0.0 Safari/537.36 OPR/100.0.0.0" version="21.6.8" etag="jS0E_8nFhypACO3LK_tu" type="github">
  <diagram name="PÃ¡gina-1" id="Is8J-hhoexp_2DFx4B09">
    <mxGraphModel>
      <root>
        <mxCell id="0" />
        <mxCell id="1" parent="0" />
      </root>
    </mxGraphModel>
  </diagram>
</mxfile>
